<svg xmlns="http://www.w3.org/2000/svg" viewBox="0 0 36 36"><path fill="#00247D" d="M0 9.06V13h5.63zM4.66 31H13v-5.84zM23 25.16V31h8.34zM0 23v3.94L5.63 23zM31.34 5H23v5.84zM36 26.94V23h-5.63zM36 13V9.06L30.37 13zM13 5H4.66L13 10.84z"/><path fill="#CF1B2B" d="m25.14 23 9.71 6.8c.47-.48.81-1.08 1-1.75L28.62 23h-3.49zM13 23h-2.14l-9.71 6.8a4 4 0 0 0 1.94 1.08L13 23.95V23zm10-10h2.14l9.71-6.8a3.99 3.99 0 0 0-1.94-1.08L23 12.05V13zm-12.14 0L1.15 6.2a4 4 0 0 0-1 1.75L7.38 13h3.49z"/><path fill="#EEE" d="M36 21H21v10h2v-5.84L31.34 31H32c1.12 0 2.13-.46 2.85-1.2L25.14 23h3.49l7.21 5.05c.1-.34.16-.68.16-1.05v-.06L30.37 23H36v-2zM0 21v2h5.63L0 26.94V27c0 1.1.44 2.08 1.15 2.8l9.7-6.8H13v.94l-9.91 6.94c.29.07.6.12.91.12h.66L13 25.16V31h2V21H0zM36 9c0-1.1-.44-2.08-1.15-2.8l-9.7 6.8H23v-.94l9.91-6.95A4 4 0 0 0 32 5h-.66L23 10.84V5h-2v10h15v-2h-5.63L36 9.06V9zM13 5v5.84L4.66 5H4c-1.12 0-2.13.46-2.85 1.2l9.7 6.8H7.38L.16 7.95C.06 8.29 0 8.63 0 9v.06L5.63 13H0v2h15V5h-2z"/><path fill="#CF1B2B" d="M21 15V5h-6v10H0v6h15v10h6V21h15v-6z"/></svg>