<svg xmlns="http://www.w3.org/2000/svg" width="142" height="142" fill="none"><g clip-path="url(#a)"><mask id="b" width="180" height="190" x="-19" y="-24" maskUnits="userSpaceOnUse" style="mask-type:luminance"><path fill="#fff" d="M161-24H-19v190h180V-24Z"/></mask><g mask="url(#b)"><path fill="url(#c)" d="M8.6 45.26v51.47c0 6.37 3.39 12.26 8.9 15.45l44.58 25.73a17.82 17.82 0 0 0 17.84 0l44.57-25.73a17.83 17.83 0 0 0 8.92-15.45V45.26c0-6.37-3.4-12.26-8.92-15.44L79.92 4.08a17.82 17.82 0 0 0-17.84 0L17.51 29.82a17.83 17.83 0 0 0-8.92 15.44Z"/><g filter="url(#d)"><path fill="#fff" d="M39.8 62.09v17.83a4.44 4.44 0 0 0 7.6 3.15 4.45 4.45 0 0 0 1.31-3.15 4.45 4.45 0 0 1 7.61-3.15c.84.83 1.3 1.97 1.3 3.15a13.36 13.36 0 0 1-22.82 9.45 13.37 13.37 0 0 1-3.92-9.45V62.09a13.36 13.36 0 0 1 22.83-9.46 13.4 13.4 0 0 1 3.92 9.46 4.45 4.45 0 0 1-7.61 3.15 4.45 4.45 0 0 1-1.3-3.15 4.45 4.45 0 0 0-7.62-3.16 4.45 4.45 0 0 0-1.3 3.16Zm71.32 17.83a4.44 4.44 0 0 1-4.46 4.46h-4.46v4.45a4.45 4.45 0 1 1-8.91 0v-4.45h-8.92v4.45a4.45 4.45 0 1 1-8.91 0v-4.45H71a4.45 4.45 0 0 1-3.15-7.61A4.45 4.45 0 0 1 71 75.46h4.46v-8.92H71a4.45 4.45 0 0 1-3.15-7.6A4.45 4.45 0 0 1 71 57.63h4.46v-4.46a4.45 4.45 0 0 1 7.6-3.15c.84.84 1.31 1.97 1.31 3.15v4.46h8.92v-4.46a4.45 4.45 0 0 1 7.6-3.15c.84.84 1.31 1.97 1.31 3.15v4.46h4.46a4.45 4.45 0 1 1 0 8.91h-4.46v8.92h4.46a4.45 4.45 0 0 1 4.46 4.46ZM93.29 66.54h-8.92v8.92h8.92v-8.92Z"/></g></g></g><defs><linearGradient id="c" x1="20.85" x2="81.03" y1="31.99" y2="136.75" gradientUnits="userSpaceOnUse"><stop stop-color="#927BE5"/><stop offset="1" stop-color="#512BD4"/></linearGradient><clipPath id="a"><path fill="#fff" d="M0 0h142v142H0z"/></clipPath><filter id="d" width="92.24" height="66.58" x="24.88" y="47.71" color-interpolation-filters="sRGB" filterUnits="userSpaceOnUse"><feFlood flood-opacity="0" result="BackgroundImageFix"/><feColorMatrix in="SourceAlpha" result="hardAlpha" values="0 0 0 0 0 0 0 0 0 0 0 0 0 0 0 0 0 0 127 0"/><feOffset/><feColorMatrix values="0 0 0 0 0 0 0 0 0 0 0 0 0 0 0 0 0 0 0.1 0"/><feBlend in2="BackgroundImageFix" result="effect1_dropShadow_2210_2"/><feColorMatrix in="SourceAlpha" result="hardAlpha" values="0 0 0 0 0 0 0 0 0 0 0 0 0 0 0 0 0 0 127 0"/><feOffset dy="1"/><feGaussianBlur stdDeviation="1"/><feColorMatrix values="0 0 0 0 0 0 0 0 0 0 0 0 0 0 0 0 0 0 0.1 0"/><feBlend in2="effect1_dropShadow_2210_2" result="effect2_dropShadow_2210_2"/><feColorMatrix in="SourceAlpha" result="hardAlpha" values="0 0 0 0 0 0 0 0 0 0 0 0 0 0 0 0 0 0 127 0"/><feOffset dy="4"/><feGaussianBlur stdDeviation="2"/><feColorMatrix values="0 0 0 0 0 0 0 0 0 0 0 0 0 0 0 0 0 0 0.09 0"/><feBlend in2="effect2_dropShadow_2210_2" result="effect3_dropShadow_2210_2"/><feColorMatrix in="SourceAlpha" result="hardAlpha" values="0 0 0 0 0 0 0 0 0 0 0 0 0 0 0 0 0 0 127 0"/><feOffset dy="9"/><feGaussianBlur stdDeviation="2.5"/><feColorMatrix values="0 0 0 0 0 0 0 0 0 0 0 0 0 0 0 0 0 0 0.05 0"/><feBlend in2="effect3_dropShadow_2210_2" result="effect4_dropShadow_2210_2"/><feColorMatrix in="SourceAlpha" result="hardAlpha" values="0 0 0 0 0 0 0 0 0 0 0 0 0 0 0 0 0 0 127 0"/><feOffset dy="15"/><feGaussianBlur stdDeviation="3"/><feColorMatrix values="0 0 0 0 0 0 0 0 0 0 0 0 0 0 0 0 0 0 0.01 0"/><feBlend in2="effect4_dropShadow_2210_2" result="effect5_dropShadow_2210_2"/><feBlend in="SourceGraphic" in2="effect5_dropShadow_2210_2" result="shape"/></filter></defs></svg>