<svg xmlns="http://www.w3.org/2000/svg" width="756" height="756" fill="none"><g clip-path="url(#a)"><path fill="#1D63ED" d="M744 324.9c-18.6-12.5-67.3-18-102.7-8.3-2-35.3-20.1-65-53.4-90.9l-12.3-8.2-8.2 12.4c-16 26-23.3 56.3-20.6 86.7a104 104 0 0 0 20.6 53.6C521.3 397 478.8 391 290.6 391H.1c-.9 42.4 6 124 58 190.5a247 247 0 0 0 18.8 21.3c42.2 42.2 106.1 73.2 201.6 73.3 145.6.1 270.4-78.5 346.4-268.6 25 .4 90.9 4.5 123.1-57.9.8-1 8.2-16.4 8.2-16.4l-12.3-8.3h.1Zm-554.3-39H108v81.7h81.7V286Zm105.5 0h-81.7v81.7h81.7V286Zm105.6 0H319v81.7h81.7V286h.1Zm105.5 0h-81.7v81.7h81.7V286Zm-422.2 0H2.4v81.7h81.7V286Zm105.6-103H108v81.7h81.7V183Zm105.5 0h-81.7v81.7h81.7V183Zm105.6 0H319v81.7h81.7V183h.1Zm0-103H319v81.6h81.7V79.9h.1Z"/></g><defs><clipPath id="a"><path fill="#fff" d="M0 0h756v756H0z"/></clipPath></defs></svg>