<svg xmlns="http://www.w3.org/2000/svg" width="456" height="456" fill="none"><path fill="#512BD4" d="M0 0h456v456H0z"/><path fill="#fff" d="M81.27 291.33c-3.22 0-5.96-1.07-8.22-3.22a10.6 10.6 0 0 1-3.38-7.85 10.7 10.7 0 0 1 3.38-7.94c2.26-2.2 5-3.3 8.22-3.3 3.28 0 6.05 1.1 8.3 3.3a10.58 10.58 0 0 1 3.47 7.94c0 3.03-1.15 5.65-3.46 7.85a11.59 11.59 0 0 1-8.3 3.22ZM210.17 289.51H189.2l-55.22-87.1c-1.4-2.2-2.55-4.5-3.46-6.86h-.49c.43 2.53.65 7.96.65 16.28v77.68h-18.54V171h22.33l53.36 85.04a90.01 90.01 0 0 1 4.35 7.28h.32c-.53-3.14-.8-8.46-.8-15.95V171h18.46v118.51ZM300.45 289.51h-64.89V171h62.31v16.7h-43.12v33.55h39.74v16.61h-39.74v35.04h45.7v16.62ZM392.67 187.7h-33.21V289.5h-19.19V187.7h-33.13V171h85.53v16.7Z"/></svg>