<svg xmlns="http://www.w3.org/2000/svg" width="128" height="128" fill="none"><path fill="#000" d="M60.75 48.46c1.01-1.48 2.11-1.67 3.01-1.67.9 0 2.38.2 3.4 1.67 7.94 10.83 21.06 32.4 30.74 48.32 6.32 10.37 11.17 18.34 12.16 19.36 3.74 3.8 8.86 1.43 11.83-2.89 2.93-4.25 3.74-7.23 3.74-10.42 0-2.17-42.44-80.46-46.71-86.98C74.82 9.58 73.47 8 66.44 8h-5.27c-7.02 0-8.03 1.58-12.14 7.85-4.27 6.52-46.72 84.81-46.72 86.98 0 3.19.82 6.17 3.75 10.42 2.97 4.32 8.1 6.7 11.83 2.88.99-1.01 5.84-8.98 12.15-19.36C39.72 80.86 52.8 59.3 60.75 48.45Z"/></svg>
