<svg xmlns="http://www.w3.org/2000/svg" viewBox="0 0 128 128"><defs><linearGradient id="a" x1="22" x2="17.1" y1="9.8" y2="14.8" gradientTransform="scale(4)" gradientUnits="userSpaceOnUse"><stop offset=".2" stop-color="#0052cc"/><stop offset="1" stop-color="#2684ff"/></linearGradient><linearGradient id="b" x1="16.6" x2="11" y1="15.6" y2="21.1" gradientTransform="scale(4)" gradientUnits="userSpaceOnUse"><stop offset=".2" stop-color="#0052cc"/><stop offset="1" stop-color="#2684ff"/></linearGradient></defs><path fill="#2684ff" d="M108 16H61.8c0 11.5 9.3 20.8 20.9 20.8h8.5v8.3c0 11.5 9.3 20.8 20.8 20.8V20a4 4 0 0 0-4-3.9m0 0"/><path fill="url(#a)" d="M85.1 39H39c0 11.6 9.3 20.9 20.8 20.9h8.5V68c0 11.5 9.4 20.9 20.9 20.9V43a4 4 0 0 0-4-4m0 0"/><path fill="url(#b)" d="M62.2 62H16c0 11.6 9.3 21 20.8 21h8.5v8.2c0 11.5 9.4 20.8 20.9 20.8V66a4 4 0 0 0-4-4m0 0"/></svg>