<svg xmlns="http://www.w3.org/2000/svg" viewBox="0 0 128 128"><path fill="#a62c39" d="M17.44 125.05s.2-29.53.2-59.56c0-58.16-4.9-62.5 21.19-62.5h72.63v83.9c0 27.61 5.16 38.43-23.86 38.43s-70.16-.27-70.16-.27"/><g transform="translate(-273.27 -435.95)"><linearGradient id="a" x1="681.44" x2="703.95" y1="2170.43" y2="2182.22" gradientTransform="matrix(1 0 0 -1 -320.77 2656.96)" gradientUnits="userSpaceOnUse"><stop offset="0" stop-color="#fff"/><stop offset="1" stop-color="#c0815e"/></linearGradient><path fill="url(#a)" d="M350.6 449.93s4.66.93 8.7 7.75c4.02 6.83 25.43 59.89 25.43 59.89v-43.13l-19.85-32.27 5.58 6.82 10.55-8.68-13.65-.93z"/></g><g transform="translate(-273.27 -435.95)"><radialGradient id="b" cx="668.12" cy="1679.3" r="38.41" gradientTransform="matrix(1 0 0 -1.582 -320.77 3155.88)" gradientUnits="userSpaceOnUse"><stop offset="0" stop-color="#fff"/><stop offset="1" stop-color="#a94436"/></radialGradient><path fill="url(#b)" d="M309.33 439.69s30.72 20.47 45.62 24.5a4340 4340 0 0 1 30.4 8.39l-35.37 86.88 15.2.62 19.87-49.03-.62-71.67z" opacity=".67"/><path fill="#fff" fill-opacity=".44" d="m337.88 531.22 31.96 30.73-59.57-1.25s-1.87-18.93-1.25-28.86l3.73-9.93z"/></g><path fill-opacity=".36" d="m94.09 125.37-28.86-29.8-26.38-9.92-20.48-45.61L40.1 3.74 25.5 3.1l-5.9 5.59-2.17 4.34L15.9 126z"/><path fill="#83222d" d="M111.77 77.89s-29.16 9.3-46.54 18-26.68 29.78-26.68 29.78 37.23-1.86 51.2-1.24c13.96.62 20.47.62 21.71-18.92s.31-27.62.31-27.62" opacity=".5"/><path fill="#fff" d="M26.44 96.42v18.33h4.67v-4.78l4.25 4.26h7.18l-5.7-5.69s4.1-.07 4.4-5.98c0-5.43-4.09-6.14-8.82-6.14zm4.9 4.97h4.02v3.27h-4.03zm20.22-4.9c-2.56 0-6.1.23-6.1 5.05v12.74h4.8v-3.12h4.64v3.04h4.82v-13.35c0-4.19-4.65-4.35-7.14-4.35zm-1.24 4.6h4.5v5.03h-4.5zm14.21-4.58h4.97v17.53h-4.97zm10.16.23v17.53h11.95v-4.65h-7.06V96.66zm27.77-.16v4.74h-7.99v1.7h3.42c1.78 0 5.5-.07 5.5 5.51s-2.56 5.9-7.75 5.9h-6.29v-4.27h7.22c2.17 0 2.29-.7 2.29-1.32q.01-.92-3.37-.9c-3.38.01-6.45-1.12-6.45-5.46s2.17-5.97 6.52-5.97 6.9.07 6.9.07"/><g fill="#fff"><path d="M30.79 91.23h41.27s-9.16-20.79-6.83-39.87 17.38-27.77 25.9-28.7c8.54-.93 13.2 4.34 13.2 4.34l1.86-2.79S93.93 11.8 78.42 13.2C62.9 14.59 52.2 24.83 45.52 37.24c-6.66 12.41-10.54 21.1-13.18 34.13s-1.55 19.86-1.55 19.86m-8.22-20.79 8.06.62-1.4 8.07-7.6-.93zm12.72-17.06 2.17-6.05-7.14-2.8L28 51.05zm10.08-20.8 4.19-4.96-5.43-3.56-4.34 4.8zm11.02-19.23 3.72 4.5 5.12-2.95-3.73-4.19zm18.15-5.12.93 4.5 6.36-.15-.62-4.04z"/><path d="m96.1 13.04-.15 2.8 4.34 2.32.93-1.4zm-.93 11.95v2.32l4.2.47v-1.86zM81.83 27l2.02 3.73 2.94-2.33-.62-2.48zm-6.36 4.81 3.1 4.66-1.86 3.25-4.5-4.96zm-6.2 12.88-2.02 4.03 5.27 4.5 1.24-5.12zm-2.18 14.12-.31 5.43 6.52 2.79-.31-5.12zm1.86 19.24 1.55 5.58 8.23.47-2.95-6.05z"/></g><path fill="none" stroke="#5e000e" stroke-width="3" d="M17.44 125.05s.2-29.53.2-59.56c0-58.16-4.9-62.5 21.19-62.5h72.63v83.9c0 27.61 3.92 38.43-23.86 38.43s-70.16-.27-70.16-.27z"/></svg>