<svg xmlns="http://www.w3.org/2000/svg" width="128" height="128" fill="none"><path fill="#6db33f" d="m125.767 57.712-24.908-42.924C98.703 11.06 93.399 8 89.062 8H39.297c-4.312 0-9.641 3.06-11.797 6.788L2.617 57.712c-2.156 3.727-2.156 9.824 0 13.551L27.5 114.212c2.156 3.727 7.46 6.788 11.797 6.788h49.79c4.312 0 9.616-3.061 11.797-6.788l24.883-42.949c2.156-3.727 2.156-9.824 0-13.55M58.802 31.745c0-2.814 2.304-5.11 5.13-5.11s5.13 2.296 5.13 5.11V62.28c0 2.813-2.305 5.109-5.13 5.109-2.826 0-5.13-2.296-5.13-5.11zm5.13 65.189c-19.183 0-34.796-15.55-34.796-34.655.024-10.96 5.229-21.253 14.052-27.818a4.57 4.57 0 0 1 6.394.937 4.53 4.53 0 0 1-.942 6.369c-11.375 8.417-13.755 24.436-5.303 35.766 8.45 11.33 24.535 13.699 35.91 5.282a25.53 25.53 0 0 0 10.36-20.536A25.65 25.65 0 0 0 79.15 41.693c-2.032-1.481-2.454-4.345-.967-6.369s4.362-2.443 6.394-.962a34.73 34.73 0 0 1 14.152 27.917c0 19.129-15.614 34.655-34.796 34.655"/></svg>