<svg width="192" height="192" fill="none" xmlns="http://www.w3.org/2000/svg"><circle cx="96" cy="96" r="96" fill="url(#a)"/><path d="M105.9 40.5h23v77a35 35 0 0 1-4.7 18.6 31.7 31.7 0 0 1-13.3 12.1 43.3 43.3 0 0 1-19.7 4.3c-6.6 0-12.7-1.2-18-3.5a29 29 0 0 1-13-10.8c-3.1-4.9-4.7-11-4.6-18.3h23.2c.1 3 .7 5.4 1.8 7.5 1.2 2 2.7 3.6 4.7 4.8 2 1 4.4 1.6 7.1 1.6 3 0 5.3-.6 7.3-1.9 2-1.2 3.6-3 4.6-5.5 1-2.4 1.6-5.3 1.6-8.9v-77Z" fill="#fff"/><defs><linearGradient id="a" x1="0" y1="192" x2="192" y2="0" gradientUnits="userSpaceOnUse"><stop stop-color="#4DA4F4"/><stop offset="1" stop-color="#E926FA"/></linearGradient></defs></svg>